<svg width="672.5" height="1114" viewBox="0 0 672.5 1114" xmlns="http://www.w3.org/2000/svg">
<style>
    svg {
        font-family: SFMono-Regular,Consolas,Liberation Mono,Menlo,monospace;
        font-size: 14px;
        font-kerning: normal;
        text-rendering: optimizeLegibility;
        fill: #24292e;
    }

    rect {
        fill: #f6f8fa;
        stroke: #d6d8da;
        stroke-width: 1;
    }

    .held {
        fill: #fdd;
    }

    .combo {
        fill: #cdf;
    }

    .ghost {
        fill: #ddd;
    }

    text {
        text-anchor: middle;
        dominant-baseline: middle;
    }

    .label {
        font-weight: bold;
        text-anchor: start;
        stroke: white;
        stroke-width: 2;
        paint-order: stroke;
    }

    .small {
        font-size: 80%;
    }
</style>
<text x="27.5" y="25.0" class="label">DEF:</text>
<rect rx="6" ry="6" x="29.5" y="52" width="55" height="50"/>
<text x="57.0" y="77.0">q</text>
<rect rx="6" ry="6" x="88.5" y="52" width="55" height="50"/>
<text x="116.0" y="77.0">w</text>
<rect rx="6" ry="6" x="147.5" y="52" width="55" height="50"/>
<text x="175.0" y="77.0">e</text>
<rect rx="6" ry="6" x="206.5" y="52" width="55" height="50"/>
<text x="234.0" y="77.0">r</text>
<rect rx="6" ry="6" x="265.5" y="52" width="55" height="50"/>
<text x="293.0" y="77.0">t</text>
<rect rx="6" ry="6" x="29.5" y="106" width="55" height="50"/>
<text x="57.0" y="131.0">a</text>
<rect rx="6" ry="6" x="88.5" y="106" width="55" height="50"/>
<text x="116.0" y="131.0">s</text>
<rect rx="6" ry="6" x="147.5" y="106" width="55" height="50"/>
<text x="175.0" y="131.0">d</text>
<rect rx="6" ry="6" x="206.5" y="106" width="55" height="50"/>
<text x="234.0" y="131.0">f</text>
<rect rx="6" ry="6" x="265.5" y="106" width="55" height="50"/>
<text x="293.0" y="131.0">g</text>
<rect rx="6" ry="6" x="29.5" y="160" width="55" height="50"/>
<text x="57.0" y="185.0">z</text>
<text x="57.0" y="203.0" class="small">ctl</text>
<rect rx="6" ry="6" x="88.5" y="160" width="55" height="50"/>
<text x="116.0" y="185.0">x</text>
<text x="116.0" y="203.0" class="small">sft</text>
<rect rx="6" ry="6" x="147.5" y="160" width="55" height="50"/>
<text x="175.0" y="185.0">c</text>
<text x="175.0" y="203.0" class="small">alt</text>
<rect rx="6" ry="6" x="206.5" y="160" width="55" height="50"/>
<text x="234.0" y="185.0">v</text>
<text x="234.0" y="203.0" class="small">cmd</text>
<rect rx="6" ry="6" x="265.5" y="160" width="55" height="50"/>
<text x="293.0" y="185.0">b</text>
<rect rx="6" ry="6" x="352.0" y="52" width="55" height="50"/>
<text x="379.5" y="77.0">y</text>
<rect rx="6" ry="6" x="411.0" y="52" width="55" height="50"/>
<text x="438.5" y="77.0">u</text>
<rect rx="6" ry="6" x="470.0" y="52" width="55" height="50"/>
<text x="497.5" y="77.0">i</text>
<rect rx="6" ry="6" x="529.0" y="52" width="55" height="50"/>
<text x="556.5" y="77.0">o</text>
<rect rx="6" ry="6" x="588.0" y="52" width="55" height="50"/>
<text x="615.5" y="77.0">p</text>
<rect rx="6" ry="6" x="352.0" y="106" width="55" height="50"/>
<text x="379.5" y="131.0">h</text>
<rect rx="6" ry="6" x="411.0" y="106" width="55" height="50"/>
<text x="438.5" y="131.0">j</text>
<rect rx="6" ry="6" x="470.0" y="106" width="55" height="50"/>
<text x="497.5" y="131.0">k</text>
<rect rx="6" ry="6" x="529.0" y="106" width="55" height="50"/>
<text x="556.5" y="131.0">l</text>
<rect rx="6" ry="6" x="588.0" y="106" width="55" height="50"/>
<text x="615.5" y="131.0">&#x27;</text>
<rect rx="6" ry="6" x="352.0" y="160" width="55" height="50"/>
<text x="379.5" y="185.0">n</text>
<rect rx="6" ry="6" x="411.0" y="160" width="55" height="50"/>
<text x="438.5" y="185.0">m</text>
<text x="438.5" y="203.0" class="small">cmd</text>
<rect rx="6" ry="6" x="470.0" y="160" width="55" height="50"/>
<text x="497.5" y="185.0">,</text>
<text x="497.5" y="203.0" class="small">alt</text>
<rect rx="6" ry="6" x="529.0" y="160" width="55" height="50"/>
<text x="556.5" y="185.0">.</text>
<text x="556.5" y="203.0" class="small">sft</text>
<rect rx="6" ry="6" x="588.0" y="160" width="55" height="50"/>
<text x="615.5" y="185.0">/</text>
<text x="615.5" y="203.0" class="small">ctl</text>
<rect rx="6" ry="6" x="206.5" y="214" width="55" height="50"/>
<text x="234.0" y="257.0" class="small">NAV</text>
<rect rx="6" ry="6" x="265.5" y="214" width="55" height="50"/>
<text x="293.0" y="239.0">space</text>
<rect rx="6" ry="6" x="352.0" y="214" width="55" height="50"/>
<text x="379.5" y="239.0">shift</text>
<rect rx="6" ry="6" x="411.0" y="214" width="55" height="50"/>
<text x="438.5" y="257.0" class="small">SYM</text>
<rect rx="6" ry="6" x="190.75" y="118.5" width="27.5" height="25.0" class="combo"/>
<text x="204.5" y="131.0" class="small">(</text>
<rect rx="6" ry="6" x="454.25" y="118.5" width="27.5" height="25.0" class="combo"/>
<text x="468.0" y="131.0" class="small">)</text>
<rect rx="6" ry="6" x="131.75" y="118.5" width="27.5" height="25.0" class="combo"/>
<text x="145.5" y="131.0" class="small">[</text>
<rect rx="6" ry="6" x="513.25" y="118.5" width="27.5" height="25.0" class="combo"/>
<text x="527.0" y="131.0" class="small">]</text>
<rect rx="6" ry="6" x="249.75" y="118.5" width="27.5" height="25.0" class="combo"/>
<text x="263.5" y="131.0" class="small">&lt;</text>
<rect rx="6" ry="6" x="395.25" y="118.5" width="27.5" height="25.0" class="combo"/>
<text x="409.0" y="131.0" class="small">&gt;</text>
<rect rx="6" ry="6" x="454.25" y="64.5" width="27.5" height="25.0" class="combo"/>
<text x="468.0" y="77.0" class="small">:</text>
<rect rx="6" ry="6" x="454.25" y="172.5" width="27.5" height="25.0" class="combo"/>
<text x="468.0" y="185.0" class="small">;</text>
<rect rx="6" ry="6" x="513.25" y="64.5" width="27.5" height="25.0" class="combo"/>
<text x="527.0" y="77.0" class="small">_</text>
<rect rx="6" ry="6" x="513.25" y="172.5" width="27.5" height="25.0" class="combo"/>
<text x="527.0" y="185.0" class="small">\</text>
<rect rx="6" ry="6" x="72.75" y="118.5" width="27.5" height="25.0" class="combo"/>
<text x="86.5" y="131.0" class="small">bspc</text>
<rect rx="6" ry="6" x="572.25" y="118.5" width="27.5" height="25.0" class="combo"/>
<text x="586.0" y="131.0" class="small">bspc</text>
<rect rx="6" ry="6" x="131.75" y="172.5" width="27.5" height="25.0" class="combo"/>
<text x="145.5" y="185.0" class="small">copy</text>
<rect rx="6" ry="6" x="72.75" y="172.5" width="27.5" height="25.0" class="combo"/>
<text x="86.5" y="185.0" class="small">undo</text>
<rect rx="6" ry="6" x="249.75" y="172.5" width="27.5" height="25.0" class="combo"/>
<text x="263.5" y="185.0" class="small">redo</text>
<text x="27.5" y="291.0" class="label">NAV:</text>
<rect rx="6" ry="6" x="29.5" y="318" width="55" height="50"/>
<text x="57.0" y="343.0">1</text>
<rect rx="6" ry="6" x="88.5" y="318" width="55" height="50"/>
<text x="116.0" y="343.0">2</text>
<rect rx="6" ry="6" x="147.5" y="318" width="55" height="50"/>
<text x="175.0" y="343.0">3</text>
<rect rx="6" ry="6" x="206.5" y="318" width="55" height="50"/>
<text x="234.0" y="343.0">4</text>
<rect rx="6" ry="6" x="265.5" y="318" width="55" height="50"/>
<text x="293.0" y="343.0">5</text>
<rect rx="6" ry="6" x="29.5" y="372" width="55" height="50"/>
<text x="57.0" y="397.0">esc</text>
<rect rx="6" ry="6" x="88.5" y="372" width="55" height="50"/>
<text x="116.0" y="397.0">
<tspan x="116.0" dy="-0.6em">desk</tspan><tspan x="116.0" dy="1.2em">prev</tspan>
</text>
<rect rx="6" ry="6" x="147.5" y="372" width="55" height="50"/>
<text x="175.0" y="397.0">
<tspan x="175.0" dy="-0.6em">cmd+</tspan><tspan x="175.0" dy="1.2em">tab</tspan>
</text>
<rect rx="6" ry="6" x="206.5" y="372" width="55" height="50"/>
<text x="234.0" y="397.0">
<tspan x="234.0" dy="-0.6em">desk</tspan><tspan x="234.0" dy="1.2em">next</tspan>
</text>
<rect rx="6" ry="6" x="265.5" y="372" width="55" height="50"/>
<text x="293.0" y="397.0">tab</text>
<rect rx="6" ry="6" x="29.5" y="426" width="55" height="50"/>
<text x="57.0" y="451.0">ctl</text>
<rect rx="6" ry="6" x="88.5" y="426" width="55" height="50"/>
<text x="116.0" y="451.0">sft</text>
<rect rx="6" ry="6" x="147.5" y="426" width="55" height="50"/>
<text x="175.0" y="451.0">alt</text>
<rect rx="6" ry="6" x="206.5" y="426" width="55" height="50"/>
<text x="234.0" y="451.0">cmd</text>
<rect rx="6" ry="6" x="265.5" y="426" width="55" height="50"/>
<text x="293.0" y="451.0">repeat</text>
<rect rx="6" ry="6" x="352.0" y="318" width="55" height="50"/>
<text x="379.5" y="343.0">home</text>
<rect rx="6" ry="6" x="411.0" y="318" width="55" height="50"/>
<text x="438.5" y="343.0">pg-dn</text>
<rect rx="6" ry="6" x="470.0" y="318" width="55" height="50"/>
<text x="497.5" y="343.0">pg-up</text>
<rect rx="6" ry="6" x="529.0" y="318" width="55" height="50"/>
<text x="556.5" y="343.0">end</text>
<rect rx="6" ry="6" x="588.0" y="318" width="55" height="50"/>
<rect rx="6" ry="6" x="352.0" y="372" width="55" height="50"/>
<text x="379.5" y="397.0">left</text>
<rect rx="6" ry="6" x="411.0" y="372" width="55" height="50"/>
<text x="438.5" y="397.0">down</text>
<rect rx="6" ry="6" x="470.0" y="372" width="55" height="50"/>
<text x="497.5" y="397.0">up</text>
<rect rx="6" ry="6" x="529.0" y="372" width="55" height="50"/>
<text x="556.5" y="397.0">right</text>
<rect rx="6" ry="6" x="588.0" y="372" width="55" height="50"/>
<text x="615.5" y="397.0">bspc</text>
<rect rx="6" ry="6" x="352.0" y="426" width="55" height="50"/>
<rect rx="6" ry="6" x="411.0" y="426" width="55" height="50"/>
<text x="438.5" y="451.0">return</text>
<rect rx="6" ry="6" x="470.0" y="426" width="55" height="50"/>
<text x="497.5" y="451.0">insert</text>
<rect rx="6" ry="6" x="529.0" y="426" width="55" height="50"/>
<rect rx="6" ry="6" x="588.0" y="426" width="55" height="50"/>
<text x="615.5" y="451.0">del</text>
<rect rx="6" ry="6" x="206.5" y="480" width="55" height="50" class="held"/>
<text x="234.0" y="523.0" class="small">NAV</text>
<rect rx="6" ry="6" x="265.5" y="480" width="55" height="50"/>
<text x="293.0" y="505.0">▽</text>
<text x="293.0" y="523.0" class="small">FUN</text>
<rect rx="6" ry="6" x="352.0" y="480" width="55" height="50"/>
<text x="379.5" y="505.0">▽</text>
<rect rx="6" ry="6" x="411.0" y="480" width="55" height="50"/>
<text x="438.5" y="523.0" class="small">SYM</text>
<rect rx="6" ry="6" x="131.75" y="330.5" width="27.5" height="25.0" class="combo"/>
<text x="145.5" y="343.0" class="small">back</text>
<rect rx="6" ry="6" x="190.75" y="330.5" width="27.5" height="25.0" class="combo"/>
<text x="204.5" y="343.0" class="small">fwd</text>
<rect rx="6" ry="6" x="572.25" y="438.5" width="27.5" height="25.0" class="combo"/>
<text x="586.0" y="451.0" class="small">srch</text>
<text x="27.5" y="557.0" class="label">SYM:</text>
<rect rx="6" ry="6" x="29.5" y="584" width="55" height="50"/>
<text x="57.0" y="609.0">!</text>
<rect rx="6" ry="6" x="88.5" y="584" width="55" height="50"/>
<text x="116.0" y="609.0">@</text>
<rect rx="6" ry="6" x="147.5" y="584" width="55" height="50"/>
<text x="175.0" y="609.0">#</text>
<rect rx="6" ry="6" x="206.5" y="584" width="55" height="50"/>
<text x="234.0" y="609.0">$</text>
<rect rx="6" ry="6" x="265.5" y="584" width="55" height="50"/>
<text x="293.0" y="609.0">%</text>
<rect rx="6" ry="6" x="29.5" y="638" width="55" height="50"/>
<text x="57.0" y="663.0">~</text>
<rect rx="6" ry="6" x="88.5" y="638" width="55" height="50"/>
<text x="116.0" y="663.0">`</text>
<rect rx="6" ry="6" x="147.5" y="638" width="55" height="50"/>
<text x="175.0" y="663.0">;</text>
<rect rx="6" ry="6" x="206.5" y="638" width="55" height="50"/>
<text x="234.0" y="663.0">:</text>
<rect rx="6" ry="6" x="265.5" y="638" width="55" height="50"/>
<text x="293.0" y="663.0">^</text>
<rect rx="6" ry="6" x="29.5" y="692" width="55" height="50"/>
<text x="57.0" y="717.0">ctl</text>
<rect rx="6" ry="6" x="88.5" y="692" width="55" height="50"/>
<text x="116.0" y="717.0">sft</text>
<rect rx="6" ry="6" x="147.5" y="692" width="55" height="50"/>
<text x="175.0" y="717.0">alt</text>
<rect rx="6" ry="6" x="206.5" y="692" width="55" height="50"/>
<text x="234.0" y="717.0">cmd</text>
<rect rx="6" ry="6" x="265.5" y="692" width="55" height="50"/>
<text x="293.0" y="717.0">&amp;</text>
<rect rx="6" ry="6" x="352.0" y="584" width="55" height="50"/>
<text x="379.5" y="609.0">+</text>
<rect rx="6" ry="6" x="411.0" y="584" width="55" height="50"/>
<text x="438.5" y="609.0">7</text>
<rect rx="6" ry="6" x="470.0" y="584" width="55" height="50"/>
<text x="497.5" y="609.0">8</text>
<rect rx="6" ry="6" x="529.0" y="584" width="55" height="50"/>
<text x="556.5" y="609.0">9</text>
<rect rx="6" ry="6" x="588.0" y="584" width="55" height="50"/>
<text x="615.5" y="609.0">=</text>
<rect rx="6" ry="6" x="352.0" y="638" width="55" height="50"/>
<text x="379.5" y="663.0">-</text>
<rect rx="6" ry="6" x="411.0" y="638" width="55" height="50"/>
<text x="438.5" y="663.0">4</text>
<rect rx="6" ry="6" x="470.0" y="638" width="55" height="50"/>
<text x="497.5" y="663.0">5</text>
<rect rx="6" ry="6" x="529.0" y="638" width="55" height="50"/>
<text x="556.5" y="663.0">6</text>
<rect rx="6" ry="6" x="588.0" y="638" width="55" height="50"/>
<text x="615.5" y="663.0">0</text>
<rect rx="6" ry="6" x="352.0" y="692" width="55" height="50"/>
<text x="379.5" y="717.0">*</text>
<rect rx="6" ry="6" x="411.0" y="692" width="55" height="50"/>
<text x="438.5" y="717.0">1</text>
<rect rx="6" ry="6" x="470.0" y="692" width="55" height="50"/>
<text x="497.5" y="717.0">2</text>
<rect rx="6" ry="6" x="529.0" y="692" width="55" height="50"/>
<text x="556.5" y="717.0">3</text>
<rect rx="6" ry="6" x="588.0" y="692" width="55" height="50"/>
<text x="615.5" y="717.0">/</text>
<rect rx="6" ry="6" x="206.5" y="746" width="55" height="50"/>
<text x="234.0" y="789.0" class="small">NAV</text>
<rect rx="6" ry="6" x="265.5" y="746" width="55" height="50"/>
<text x="293.0" y="771.0">▽</text>
<rect rx="6" ry="6" x="352.0" y="746" width="55" height="50"/>
<text x="379.5" y="771.0">▽</text>
<rect rx="6" ry="6" x="411.0" y="746" width="55" height="50" class="held"/>
<text x="438.5" y="789.0" class="small">SYM</text>
<text x="27.5" y="823.0" class="label">FUN:</text>
<rect rx="6" ry="6" x="29.5" y="850" width="55" height="50"/>
<rect rx="6" ry="6" x="88.5" y="850" width="55" height="50"/>
<text x="116.0" y="875.0">vol-dn</text>
<rect rx="6" ry="6" x="147.5" y="850" width="55" height="50"/>
<text x="175.0" y="875.0">mute</text>
<rect rx="6" ry="6" x="206.5" y="850" width="55" height="50"/>
<text x="234.0" y="875.0">vol-up</text>
<rect rx="6" ry="6" x="265.5" y="850" width="55" height="50"/>
<text x="293.0" y="875.0">bri-up</text>
<rect rx="6" ry="6" x="29.5" y="904" width="55" height="50"/>
<rect rx="6" ry="6" x="88.5" y="904" width="55" height="50"/>
<text x="116.0" y="929.0">prev</text>
<rect rx="6" ry="6" x="147.5" y="904" width="55" height="50"/>
<text x="175.0" y="929.0">play</text>
<rect rx="6" ry="6" x="206.5" y="904" width="55" height="50"/>
<text x="234.0" y="929.0">next</text>
<rect rx="6" ry="6" x="265.5" y="904" width="55" height="50"/>
<text x="293.0" y="929.0">bri-dn</text>
<rect rx="6" ry="6" x="29.5" y="958" width="55" height="50"/>
<text x="57.0" y="983.0">
<tspan x="57.0" dy="-0.6em">bt</tspan><tspan x="57.0" dy="1.2em">0</tspan>
</text>
<rect rx="6" ry="6" x="88.5" y="958" width="55" height="50"/>
<text x="116.0" y="983.0">
<tspan x="116.0" dy="-0.6em">bt</tspan><tspan x="116.0" dy="1.2em">1</tspan>
</text>
<rect rx="6" ry="6" x="147.5" y="958" width="55" height="50"/>
<text x="175.0" y="983.0">
<tspan x="175.0" dy="-0.6em">bt</tspan><tspan x="175.0" dy="1.2em">2</tspan>
</text>
<rect rx="6" ry="6" x="206.5" y="958" width="55" height="50"/>
<text x="234.0" y="983.0">
<tspan x="234.0" dy="-0.6em">output</tspan><tspan x="234.0" dy="1.2em">toggle</tspan>
</text>
<rect rx="6" ry="6" x="265.5" y="958" width="55" height="50"/>
<text x="293.0" y="983.0">
<tspan x="293.0" dy="-0.6em">bt</tspan><tspan x="293.0" dy="1.2em">clear</tspan>
</text>
<rect rx="6" ry="6" x="352.0" y="850" width="55" height="50"/>
<text x="379.5" y="875.0">F12</text>
<rect rx="6" ry="6" x="411.0" y="850" width="55" height="50"/>
<text x="438.5" y="875.0">F7</text>
<rect rx="6" ry="6" x="470.0" y="850" width="55" height="50"/>
<text x="497.5" y="875.0">F8</text>
<rect rx="6" ry="6" x="529.0" y="850" width="55" height="50"/>
<text x="556.5" y="875.0">F9</text>
<rect rx="6" ry="6" x="588.0" y="850" width="55" height="50"/>
<rect rx="6" ry="6" x="352.0" y="904" width="55" height="50"/>
<text x="379.5" y="929.0">F11</text>
<rect rx="6" ry="6" x="411.0" y="904" width="55" height="50"/>
<text x="438.5" y="929.0">F4</text>
<rect rx="6" ry="6" x="470.0" y="904" width="55" height="50"/>
<text x="497.5" y="929.0">F5</text>
<rect rx="6" ry="6" x="529.0" y="904" width="55" height="50"/>
<text x="556.5" y="929.0">F6</text>
<rect rx="6" ry="6" x="588.0" y="904" width="55" height="50"/>
<text x="615.5" y="929.0">
<tspan x="615.5" dy="-0.6em">to</tspan><tspan x="615.5" dy="1.2em">clmk</tspan>
</text>
<rect rx="6" ry="6" x="352.0" y="958" width="55" height="50"/>
<text x="379.5" y="983.0">F10</text>
<rect rx="6" ry="6" x="411.0" y="958" width="55" height="50"/>
<text x="438.5" y="983.0">F1</text>
<rect rx="6" ry="6" x="470.0" y="958" width="55" height="50"/>
<text x="497.5" y="983.0">F2</text>
<rect rx="6" ry="6" x="529.0" y="958" width="55" height="50"/>
<text x="556.5" y="983.0">F3</text>
<rect rx="6" ry="6" x="588.0" y="958" width="55" height="50"/>
<text x="615.5" y="983.0">
<tspan x="615.5" dy="-0.6em">to</tspan><tspan x="615.5" dy="1.2em">qwrt</tspan>
</text>
<rect rx="6" ry="6" x="206.5" y="1012" width="55" height="50"/>
<text x="234.0" y="1055.0" class="small">NAV</text>
<rect rx="6" ry="6" x="265.5" y="1012" width="55" height="50" class="held"/>
<text x="293.0" y="1037.0">▽</text>
<text x="293.0" y="1055.0" class="small">FUN</text>
<rect rx="6" ry="6" x="352.0" y="1012" width="55" height="50"/>
<text x="379.5" y="1037.0">▽</text>
<rect rx="6" ry="6" x="411.0" y="1012" width="55" height="50"/>
<text x="438.5" y="1055.0" class="small">SYM</text>
</svg>
